<?xml version="1.0" encoding="UTF-8" standalone="no"?>
<!-- Created with Inkscape (http://www.inkscape.org/) -->

<svg
   version="1.1"
   id="svg2"
   width="120" height="60"
   viewBox="0 0 486.66666 114.37333"
   sodipodi:docname="microsoft-power-bi-seeklogo.com.eps"
   xmlns:inkscape="http://www.inkscape.org/namespaces/inkscape"
   xmlns:sodipodi="http://sodipodi.sourceforge.net/DTD/sodipodi-0.dtd"
   xmlns="http://www.w3.org/2000/svg"
   xmlns:svg="http://www.w3.org/2000/svg">
  <defs
     id="defs6" />
  <sodipodi:namedview
     id="namedview4"
     pagecolor="#ffffff"
     bordercolor="#000000"
     borderopacity="0.25"
     inkscape:showpageshadow="2"
     inkscape:pageopacity="0.0"
     inkscape:pagecheckerboard="0"
     inkscape:deskcolor="#d1d1d1" />
  <g
     id="g8"
     inkscape:groupmode="layer"
     inkscape:label="ink_ext_XXXXXX"
     transform="matrix(1.3333333,0,0,-1.3333333,0,114.37333)">
    <g
       id="g10"
       transform="scale(0.1)">
      <path
         d="M 3650,656.066 V 195.727 h -59.42 V 656.066 Z M 3279.82,240.801 c 11.6,-2.047 28.68,-2.723 49.85,-2.723 61.47,0 118.16,22.535 118.16,89.473 0,62.832 -53.96,88.781 -118.84,88.781 h -49.17 z m 0,220.609 h 53.95 c 62.83,0 99.72,32.785 99.72,77.18 0,53.957 -40.98,75.133 -101.09,75.133 -27.31,0 -43.02,-2.055 -52.58,-4.102 z m -59.43,188.512 c 25.96,5.461 66.94,9.558 108.6,9.558 59.41,0 97.67,-10.246 126.35,-33.468 23.91,-17.754 38.26,-45.078 38.26,-81.27 0,-44.398 -29.38,-83.332 -77.87,-101.09 v -1.363 c 43.71,-10.926 94.94,-47.125 94.94,-115.426 0,-39.617 -15.71,-69.668 -38.94,-92.203 -32.09,-29.375 -84,-43.027 -159.13,-43.027 -40.98,0 -72.4,2.734 -92.21,5.457 z M 2850.22,423.164 c 0,38.934 -0.68,72.399 -2.73,103.133 h 52.58 l 2.05,-64.887 h 2.73 c 15.04,44.399 51.23,72.399 91.53,72.399 6.83,0 11.61,-0.68 17.07,-2.047 v -56.688 c -6.14,1.367 -12.29,2.047 -20.49,2.047 -42.34,0 -72.4,-32.101 -80.59,-77.18 -1.37,-8.191 -2.73,-17.753 -2.73,-28 V 195.727 h -59.42 z m -132.5,-30.055 c 0.68,38.254 -15.71,97.668 -83.33,97.668 -60.79,0 -87.43,-56 -92.21,-97.668 z m -176.21,-43.023 c 1.36,-81.273 53.27,-114.738 113.38,-114.738 43.02,0 68.98,7.511 91.51,17.07 l 10.25,-43.027 c -21.18,-9.571 -57.38,-20.489 -109.96,-20.489 -101.77,0 -162.56,66.934 -162.56,166.649 0,99.715 58.74,178.258 155.05,178.258 107.91,0 136.59,-94.934 136.59,-155.723 0,-12.289 -1.37,-21.856 -2.05,-28 z m -505.43,176.211 43.71,-168.016 c 9.57,-36.883 18.44,-71.035 24.59,-105.179 h 2.05 c 7.51,33.468 18.44,68.98 29.37,104.496 l 53.96,168.699 h 50.53 l 51.23,-165.285 c 12.29,-39.614 21.85,-74.442 29.37,-107.91 h 2.05 c 5.46,33.468 14.34,68.296 25.27,107.226 l 47.13,165.969 h 59.41 l -106.54,-330.57 h -54.64 l -50.54,157.769 c -11.62,36.887 -21.18,69.668 -29.38,108.602 h -1.36 c -8.19,-39.614 -18.44,-73.766 -30.06,-109.282 l -53.27,-157.089 h -54.64 l -99.71,330.57 z M 1678.86,360.328 c 0,-72.398 41.66,-127.039 100.4,-127.039 57.37,0 100.4,53.957 100.4,128.406 0,56.004 -28,127.035 -99.03,127.035 -71.03,0 -101.77,-65.566 -101.77,-128.402 z m 262.27,3.414 c 0,-122.258 -84.69,-175.527 -164.6,-175.527 -89.47,0 -158.45,65.562 -158.45,170.066 0,110.649 72.4,175.528 163.91,175.528 94.94,0 159.14,-68.981 159.14,-170.067 z m -583.97,64.887 c 12.98,-3.41 29.37,-4.777 49.18,-4.777 71.71,0 115.42,34.828 115.42,98.347 0,60.789 -43.02,90.156 -108.59,90.156 -25.95,0 -45.76,-2.046 -56.01,-4.781 z m -59.42,221.973 c 28.69,4.781 66.25,8.878 114.06,8.878 58.74,0 101.77,-13.66 129.09,-38.246 25.27,-21.855 40.29,-55.324 40.29,-96.3 0,-41.668 -12.29,-74.45 -35.51,-98.356 -31.42,-33.469 -82.64,-50.539 -140.7,-50.539 -17.75,0 -34.15,0.68 -47.81,4.102 V 195.727 h -59.42 z M 833.184,642.523 104.027,855.441 c -5.4606,1.598 -10.9176,2.348 -16.2575,2.348 -30.7422,-0.004 -57.5273,-24.93 -57.5273,-57.668 V 455.941 H 73.457 v 344.18 c 0,8.926 7.4336,14.453 14.3203,14.453 1.3516,0 2.7422,-0.207 4.1368,-0.613 L 821.07,601.039 c 6.11,-1.785 10.379,-7.476 10.379,-13.84 V 128.047 c 0,-8.93 -7.429,-14.453 -14.312,-14.453 -1.375,0 -2.731,0.203 -4.149,0.613 L 646.691,162.77 V 117.746 L 800.875,72.7266 c 5.465,-1.5977 10.918,-2.3477 16.262,-2.3477 30.738,0 57.527,24.9297 57.527,57.6681 v 459.152 c 0,25.61 -16.898,48.145 -41.48,55.324 z M 593.645,54.668 v 465.344 c 0,30.191 -24.477,54.668 -54.668,54.668 v 0 c -30.192,0 -54.664,-24.477 -54.664,-54.668 V 54.668 C 484.313,24.4766 508.785,0 538.977,0 v 0 c 30.191,0 54.668,24.4766 54.668,54.668 z m -161.438,51.176 v 357.094 c 0,30.191 -24.477,54.667 -54.668,54.667 v 0 c -30.191,0 -54.664,-24.476 -54.664,-54.667 V 105.844 c 0,-30.1917 24.473,-54.6643 54.664,-54.6643 v 0 c 30.191,0 54.668,24.4726 54.668,54.6643 z M 270.77,161.129 v 249.66 c 0,30.191 -24.473,54.668 -54.668,54.668 v 0 c -30.192,0 -54.664,-24.477 -54.664,-54.668 v -249.66 c 0,-30.191 24.472,-54.668 54.664,-54.668 v 0 c 30.195,0 54.668,24.477 54.668,54.668 z m -216.1059,-5.27 v 0 C 24.4766,155.859 0,180.332 0,210.523 V 354.75 c 0,30.191 24.4766,54.668 54.6641,54.668 v 0 c 30.1953,0 54.6679,-24.477 54.6679,-54.668 V 210.523 c 0,-30.191 -24.4726,-54.664 -54.6679,-54.664"
         style="fill:#100f0d;fill-opacity:1;fill-rule:nonzero;stroke:none"
         id="path12" />
    </g>
  </g>
</svg>
