<svg id="eYcaSqf0Ket1" xmlns="http://www.w3.org/2000/svg" xmlns:xlink="http://www.w3.org/1999/xlink" viewBox="0 0 60 60" shape-rendering="geometricPrecision" text-rendering="geometricPrecision"><g transform="translate(1.917023 2.83)"><g><rect width="15.42" height="6.68" rx="0.78" ry="0.78" transform="translate(.75 7.94)" fill="none" stroke="#e74d61" stroke-width="1.5" stroke-linecap="round" stroke-linejoin="round"/><line x1="3.71" y1="11.28" x2="5.58" y2="11.28" fill="none" stroke=" white" stroke-width="1.5" stroke-linecap="round" stroke-linejoin="round"/><line x1="8.46" y1="11.28" x2="13.04" y2="11.28" fill="none" stroke="white" stroke-width="1.5" stroke-linecap="round" stroke-linejoin="round"/></g><circle r="2.87" transform="translate(13.73 25.5)" fill="none" stroke="#e74d61" stroke-width="1.5" stroke-linecap="round" stroke-linejoin="round"/><circle r="2.87" transform="translate(40.08 30.55)" fill="none" stroke="#e74d61" stroke-width="1.5" stroke-linecap="round" stroke-linejoin="round"/><circle r="2.87" transform="translate(48.87 21.47)" fill="none" stroke="#e74d61" stroke-width="1.5" stroke-linecap="round" stroke-linejoin="round"/><circle r="3.19" transform="translate(22.51 17.01)" fill="none" stroke="#e74d61" stroke-width="1.5" stroke-linecap="round" stroke-linejoin="round"/><line x1="16.13" y1="23.2" x2="20" y2="19.49" fill="#fff" stroke="#e74d61" stroke-width="1.5" stroke-linecap="round" stroke-linejoin="round" stroke-dasharray="10"/><line x1="25.45" y1="19.07" x2="37.48" y2="28.49" fill="#fff" stroke="#e74d61" stroke-width="1.5" stroke-linecap="round" stroke-linejoin="round" stroke-dasharray="30"/><line x1="42.44" y1="28.29" x2="46.81" y2="23.78" fill="#fff" stroke="#e74d61" stroke-width="1.5" stroke-linecap="round" stroke-linejoin="round" stroke-dasharray="10"/><line x1="7.56" y1="53.59" x2="54.81" y2="53.59" transform="translate(.115 0)" fill="#fff" stroke="white" stroke-width="1.5" stroke-linecap="round" stroke-linejoin="round"/><g transform="translate(0 0.000001)"><line x1="51.74" y1="53.59" x2="51.74" y2="36.48" fill="#fff" stroke="white" stroke-width="1.5" stroke-linecap="round" stroke-linejoin="round"/><path d="M46,53.59v-23.7c0-.28.22-.5.5-.5h4.75c.28,0,.5.22.5.5v2.72" fill="none" stroke="white" stroke-width="1.5" stroke-linecap="round" stroke-linejoin="round"/></g><path d="M37.1,53.09v-12.92c0-.28.22-.5.5-.5h4.92c.28,0,.5.22.5.5v12.92" fill="none" stroke="white" stroke-width="1.5" stroke-linecap="round" stroke-linejoin="round"/><path d="M10.77,53.09v-12.92c0-.28.22-.5.5-.5h4.92c.28,0,.5.22.5.5v12.92" fill="none" stroke="white" stroke-width="1.5" stroke-linecap="round" stroke-linejoin="round"/><path d="M28.34,53.11v-18.42c0-.39.22-.71.5-.71h4.92c.28,0,.5.32.5.71v18.42" fill="none" stroke="white" stroke-width="1.5" stroke-linecap="round" stroke-linejoin="round"/><g transform="translate(-.220001 0)"><line x1="25.45" y1="53.09" x2="25.45" y2="48.16" fill="none" stroke="white" stroke-width="1.5" stroke-linecap="round" stroke-linejoin="round"/><path d="M19.54,53.09v-23.42c0-.28.22-.5.5-.5h4.67c.28,0,.5.22.5.5v15.15" fill="none" stroke="white" stroke-width="1.5" stroke-linecap="round" stroke-linejoin="round"/></g><path d="M27.74,12.83c1.05,1.21,1.69,2.8,1.69,4.53c0,3.82-3.1,6.92-6.92,6.92s-6.92-3.1-6.92-6.92s3.1-6.92,6.92-6.92c.89,0,1.74.17,2.51.47" fill="none" stroke="#e74d61" stroke-width="1.5" stroke-linecap="round" stroke-linejoin="round"/><g><path d="M48.87,0.75c-4.05,0-7.33,3.28-7.33,7.33c0,3.64,2.66,6.66,6.15,7.23l1.19,2.05l1.19-2.05c3.48-.57,6.15-3.58,6.15-7.23c0-4.05-3.28-7.33-7.33-7.33Z" fill="none" stroke="white" stroke-width="1.5" stroke-linecap="round" stroke-linejoin="round"/><g><path d="M51.49,4.82h-3.73c-.83,0-1.51.68-1.51,1.51v.19c0,.83.68,1.51,1.51,1.51h2.22c.83,0,1.51.68,1.51,1.51v0c0,.83-.68,1.51-1.51,1.51h-3.73" fill="none" stroke="white" stroke-width="1.5" stroke-linecap="round" stroke-linejoin="round"/><line x1="48.92" y1="12.5" x2="48.92" y2="11.05" fill="none" stroke="white" stroke-width="1.5" stroke-linecap="round" stroke-linejoin="round"/><line x1="48.92" y1="4.82" x2="48.92" y2="3.38" fill="none" stroke="white" stroke-width="1.5" stroke-linecap="round" stroke-linejoin="round"/></g></g></g></svg>