<svg id="eN1B3VI8Yzp1" xmlns="http://www.w3.org/2000/svg" xmlns:xlink="http://www.w3.org/1999/xlink" viewBox="0 0 60 60" shape-rendering="geometricPrecision" text-rendering="geometricPrecision"><style><![CDATA[#eN1B3VI8Yzp3_tr {animation: eN1B3VI8Yzp3_tr__tr 3000ms linear infinite normal forwards}@keyframes eN1B3VI8Yzp3_tr__tr { 0% {transform: translate(16.13px,7.935px) rotate(0deg)} 23.333333% {transform: translate(16.13px,7.935px) rotate(0deg)} 43.333333% {transform: translate(16.13px,7.935px) rotate(7.87415deg)} 56.666667% {transform: translate(16.13px,7.935px) rotate(-4.731108deg)} 73.333333% {transform: translate(16.13px,7.935px) rotate(0deg)} 100% {transform: translate(16.13px,7.935px) rotate(0deg)}} #eN1B3VI8Yzp11 {animation: eN1B3VI8Yzp11_s_do 3000ms linear infinite normal forwards}@keyframes eN1B3VI8Yzp11_s_do { 0% {stroke-dashoffset: 10} 16.666667% {stroke-dashoffset: 0} 100% {stroke-dashoffset: 0}} #eN1B3VI8Yzp12 {animation: eN1B3VI8Yzp12_s_do 3000ms linear infinite normal forwards}@keyframes eN1B3VI8Yzp12_s_do { 0% {stroke-dashoffset: 30} 10% {stroke-dashoffset: 30} 26.666667% {stroke-dashoffset: 0} 100% {stroke-dashoffset: 0}} #eN1B3VI8Yzp13 {animation: eN1B3VI8Yzp13_s_do 3000ms linear infinite normal forwards}@keyframes eN1B3VI8Yzp13_s_do { 0% {stroke-dashoffset: 10} 20% {stroke-dashoffset: 10} 33.333333% {stroke-dashoffset: 0} 100% {stroke-dashoffset: 0}} #eN1B3VI8Yzp15_ts {animation: eN1B3VI8Yzp15_ts__ts 3000ms linear infinite normal forwards}@keyframes eN1B3VI8Yzp15_ts__ts { 0% {transform: translate(48.92px,53.09px) scale(1,0)} 26.666667% {transform: translate(48.92px,53.09px) scale(1,0);animation-timing-function: cubic-bezier(0.42,0,0.58,1)} 43.333333% {transform: translate(48.92px,53.09px) scale(1,1)} 100% {transform: translate(48.92px,53.09px) scale(1,1)}} #eN1B3VI8Yzp18_ts {animation: eN1B3VI8Yzp18_ts__ts 3000ms linear infinite normal forwards}@keyframes eN1B3VI8Yzp18_ts__ts { 0% {transform: translate(40.08px,53.11px) scale(1,0)} 20% {transform: translate(40.08px,53.11px) scale(1,0);animation-timing-function: cubic-bezier(0.42,0,0.58,1)} 36.666667% {transform: translate(40.08px,53.11px) scale(1,1)} 100% {transform: translate(40.08px,53.11px) scale(1,1)}} #eN1B3VI8Yzp19_ts {animation: eN1B3VI8Yzp19_ts__ts 3000ms linear infinite normal forwards}@keyframes eN1B3VI8Yzp19_ts__ts { 0% {transform: translate(13.73px,53.09px) scale(1,0);animation-timing-function: cubic-bezier(0.42,0,0.58,1)} 16.666667% {transform: translate(13.73px,53.09px) scale(1,1)} 100% {transform: translate(13.73px,53.09px) scale(1,1)}} #eN1B3VI8Yzp20_ts {animation: eN1B3VI8Yzp20_ts__ts 3000ms linear infinite normal forwards}@keyframes eN1B3VI8Yzp20_ts__ts { 0% {transform: translate(31.465px,53.09px) scale(1,0)} 13.333333% {transform: translate(31.465px,53.09px) scale(1,0);animation-timing-function: cubic-bezier(0.42,0,0.58,1)} 30% {transform: translate(31.465px,53.09px) scale(1,1)} 100% {transform: translate(31.465px,53.09px) scale(1,1)}} #eN1B3VI8Yzp21_ts {animation: eN1B3VI8Yzp21_ts__ts 3000ms linear infinite normal forwards}@keyframes eN1B3VI8Yzp21_ts__ts { 0% {transform: translate(22.289999px,53.590001px) scale(1,0)} 6.666667% {transform: translate(22.289999px,53.590001px) scale(1,0);animation-timing-function: cubic-bezier(0.42,0,0.58,1)} 23.333333% {transform: translate(22.289999px,53.590001px) scale(1,1)} 100% {transform: translate(22.289999px,53.590001px) scale(1,1)}} #eN1B3VI8Yzp25_tr {animation: eN1B3VI8Yzp25_tr__tr 3000ms linear infinite normal forwards}@keyframes eN1B3VI8Yzp25_tr__tr { 0% {transform: translate(41.54px,0.746961px) rotate(0deg)} 23.333333% {transform: translate(41.54px,0.746961px) rotate(0deg);animation-timing-function: cubic-bezier(0.42,0,0.58,1)} 43.333333% {transform: translate(41.54px,0.746961px) rotate(-9.605675deg);animation-timing-function: cubic-bezier(0.42,0,0.58,1)} 56.666667% {transform: translate(41.54px,0.746961px) rotate(3.843229deg);animation-timing-function: cubic-bezier(0.42,0,0.58,1)} 73.333333% {transform: translate(41.54px,0.746961px) rotate(0deg)} 100% {transform: translate(41.54px,0.746961px) rotate(0deg)}}]]></style><g transform="translate(1.917023 2.83)"><g id="eN1B3VI8Yzp3_tr" transform="translate(16.13,7.935) rotate(0)"><g transform="translate(-16.13,-7.935)"><rect width="15.42" height="6.68" rx="0.78" ry="0.78" transform="translate(.75 7.94)" fill="none" stroke="#e74d61" stroke-width="1.5" stroke-linecap="round" stroke-linejoin="round"/><line x1="3.71" y1="11.28" x2="5.58" y2="11.28" fill="none" stroke="white" stroke-width="1.5" stroke-linecap="round" stroke-linejoin="round"/><line x1="8.46" y1="11.28" x2="13.04" y2="11.28" fill="none" stroke="white" stroke-width="1.5" stroke-linecap="round" stroke-linejoin="round"/></g></g><circle r="2.87" transform="translate(13.73 25.5)" fill="none" stroke="#e74d61" stroke-width="1.5" stroke-linecap="round" stroke-linejoin="round"/><circle r="2.87" transform="translate(40.08 30.55)" fill="none" stroke="#e74d61" stroke-width="1.5" stroke-linecap="round" stroke-linejoin="round"/><circle r="2.87" transform="translate(48.87 21.47)" fill="none" stroke="#e74d61" stroke-width="1.5" stroke-linecap="round" stroke-linejoin="round"/><circle r="3.19" transform="translate(22.51 17.01)" fill="none" stroke="#e74d61" stroke-width="1.5" stroke-linecap="round" stroke-linejoin="round"/><line id="eN1B3VI8Yzp11" x1="16.13" y1="23.2" x2="20" y2="19.49" fill="#fff" stroke="#e74d61" stroke-width="1.5" stroke-linecap="round" stroke-linejoin="round" stroke-dashoffset="10" stroke-dasharray="10"/><line id="eN1B3VI8Yzp12" x1="25.45" y1="19.07" x2="37.48" y2="28.49" fill="#fff" stroke="#e74d61" stroke-width="1.5" stroke-linecap="round" stroke-linejoin="round" stroke-dashoffset="30" stroke-dasharray="30"/><line id="eN1B3VI8Yzp13" x1="42.44" y1="28.29" x2="46.81" y2="23.78" fill="#fff" stroke="#e74d61" stroke-width="1.5" stroke-linecap="round" stroke-linejoin="round" stroke-dashoffset="10" stroke-dasharray="10"/><line x1="7.56" y1="53.59" x2="54.81" y2="53.59" transform="translate(.115 0)" fill="#fff" stroke="white" stroke-width="1.5" stroke-linecap="round" stroke-linejoin="round"/><g id="eN1B3VI8Yzp15_ts" transform="translate(48.92,53.09) scale(1,0)"><g transform="translate(-48.92,-53.089999)"><line x1="51.74" y1="53.59" x2="51.74" y2="36.48" fill="#fff" stroke="white" stroke-width="1.5" stroke-linecap="round" stroke-linejoin="round"/><path d="M46,53.59v-23.7c0-.28.22-.5.5-.5h4.75c.28,0,.5.22.5.5v2.72" fill="none" stroke="white" stroke-width="1.5" stroke-linecap="round" stroke-linejoin="round"/></g></g><g id="eN1B3VI8Yzp18_ts" transform="translate(40.08,53.11) scale(1,0)"><path d="M37.1,53.09v-12.92c0-.28.22-.5.5-.5h4.92c.28,0,.5.22.5.5v12.92" transform="translate(-40.08,-53.11)" fill="none" stroke="white" stroke-width="1.5" stroke-linecap="round" stroke-linejoin="round"/></g><g id="eN1B3VI8Yzp19_ts" transform="translate(13.73,53.09) scale(1,0)"><path d="M10.77,53.09v-12.92c0-.28.22-.5.5-.5h4.92c.28,0,.5.22.5.5v12.92" transform="translate(-13.73,-53.09)" fill="none" stroke="white" stroke-width="1.5" stroke-linecap="round" stroke-linejoin="round"/></g><g id="eN1B3VI8Yzp20_ts" transform="translate(31.465,53.09) scale(1,0)"><path d="M28.34,53.11v-18.42c0-.39.22-.71.5-.71h4.92c.28,0,.5.32.5.71v18.42" transform="translate(-31.465,-53.09)" fill="none" stroke="white" stroke-width="1.5" stroke-linecap="round" stroke-linejoin="round"/></g><g id="eN1B3VI8Yzp21_ts" transform="translate(22.289999,53.590001) scale(1,0)"><g transform="translate(-22.51,-53.590001)"><line x1="25.45" y1="53.09" x2="25.45" y2="48.16" fill="none" stroke="white" stroke-width="1.5" stroke-linecap="round" stroke-linejoin="round"/><path d="M19.54,53.09v-23.42c0-.28.22-.5.5-.5h4.67c.28,0,.5.22.5.5v15.15" fill="none" stroke="white" stroke-width="1.5" stroke-linecap="round" stroke-linejoin="round"/></g></g><path d="M27.74,12.83c1.05,1.21,1.69,2.8,1.69,4.53c0,3.82-3.1,6.92-6.92,6.92s-6.92-3.1-6.92-6.92s3.1-6.92,6.92-6.92c.89,0,1.74.17,2.51.47" fill="none" stroke="#e74d61" stroke-width="1.5" stroke-linecap="round" stroke-linejoin="round"/><g id="eN1B3VI8Yzp25_tr" transform="translate(41.54,0.746961) rotate(0)"><g transform="translate(-41.54,-0.746961)"><path d="M48.87,0.75c-4.05,0-7.33,3.28-7.33,7.33c0,3.64,2.66,6.66,6.15,7.23l1.19,2.05l1.19-2.05c3.48-.57,6.15-3.58,6.15-7.23c0-4.05-3.28-7.33-7.33-7.33Z" fill="none" stroke="white" stroke-width="1.5" stroke-linecap="round" stroke-linejoin="round"/><g><path d="M51.49,4.82h-3.73c-.83,0-1.51.68-1.51,1.51v.19c0,.83.68,1.51,1.51,1.51h2.22c.83,0,1.51.68,1.51,1.51v0c0,.83-.68,1.51-1.51,1.51h-3.73" fill="none" stroke="white" stroke-width="1.5" stroke-linecap="round" stroke-linejoin="round"/><line x1="48.92" y1="12.5" x2="48.92" y2="11.05" fill="none" stroke="white" stroke-width="1.5" stroke-linecap="round" stroke-linejoin="round"/><line x1="48.92" y1="4.82" x2="48.92" y2="3.38" fill="none" stroke="white" stroke-width="1.5" stroke-linecap="round" stroke-linejoin="round"/></g></g></g></g></svg>