<svg id="eWI4adFbopx1" xmlns="http://www.w3.org/2000/svg" xmlns:xlink="http://www.w3.org/1999/xlink" viewBox="0 0 60 60" shape-rendering="geometricPrecision" text-rendering="geometricPrecision"><g transform="matrix(1.277006 0 0 1.277006 2.544434 2.697819)"><g transform="matrix(.694947 0.719061-.719061 0.694947 21.769138-8.501698)"><path d="M20.9046,27.0987c3.1516,0,5.7066-2.5549,5.7066-5.7066c0-3.1516-2.555-5.7066-5.7066-5.7066s-5.7066,2.555-5.7066,5.7066c0,3.1517,2.5549,5.7066,5.7066,5.7066Z" fill="none" stroke="#e74d61" stroke-width="2" stroke-linecap="round" stroke-linejoin="round" stroke-miterlimit="10"/><path d="M34.6997,23.7237v-4.6527h-1.945c-.3111-1.5716-.9315-3.0658-1.8251-4.3956l1.3796-1.3709-3.2989-3.2988-1.3795,1.3709c-1.3306-.8904-2.8246-1.50782-4.3956-1.81652v-1.95363h-4.6612v1.95363c-1.5705.31022-3.0643.92752-4.3957,1.81652l-1.3795-1.3709-3.29882,3.2988l1.37952,1.3709c-.89099,1.3303-1.50847,2.8245-1.81652,4.3956h-1.9536v4.6698h1.9536c.30606,1.5717.92369,3.0663,1.81652,4.3956L9.49998,29.5159l3.29882,3.2989l1.3795-1.3795c1.3314.889,2.8252,1.5063,4.3957,1.8165v1.9536h4.6612v-1.9536c1.571-.3087,3.065-.9261,4.3956-1.8165l1.3795,1.3795l3.2989-3.2989-1.3796-1.3795c.8959-1.3286,1.5165-2.8232,1.8251-4.3956l1.945-.0171Z" fill="none" stroke="#e74d61" stroke-width="2" stroke-linecap="round" stroke-linejoin="round" stroke-miterlimit="10"/></g><g transform="matrix(.882994-.469384 0.469384 0.882994-7.519735 12.593302)"><g transform="translate(0 0.000001)"><path d="M40.8776,15.3779c.5959,1.9436.8991,3.9651.8997,5.9979c0,2.6777-.5276,5.3291-1.5525,7.8028-1.025,2.4737-2.5272,4.7213-4.421,6.6142-1.8938,1.893-4.1419,3.3943-6.6161,4.4182s-5.1257,1.5503-7.8033,1.5492c-3.23.0051-6.4145-.7616-9.2882-2.2364" fill="none" stroke="white" stroke-width="2" stroke-linecap="round" stroke-linejoin="round" stroke-miterlimit="10" stroke-dasharray="150"/><path d="M40.2433,15.3773c.9702,0,1.7566-.7864,1.7566-1.7565s-.7864-1.7565-1.7566-1.7565c-.9701,0-1.7565.7864-1.7565,1.7565s.7864,1.7565,1.7565,1.7565Z" fill="none" stroke="white" stroke-width="2" stroke-linecap="round" stroke-linejoin="round" stroke-miterlimit="10"/></g><g transform="translate(0 0.000001)"><path d="M2.79081,29.7557c-1.18307-2.6291-1.793504-5.4798-1.7908-8.3628-.001127-2.6777.52531-5.3292,1.54921-7.8034C3.57313,11.1154,5.07443,8.86724,6.9674,6.97347s4.1405-3.39609,6.6142-4.42103s5.1251-1.55241,7.8027-1.5524c3.8683-.007201,7.6583,1.08962,10.9248,3.1617" transform="translate(0-.000556)" fill="none" stroke="white" stroke-width="2" stroke-linecap="round" stroke-linejoin="round" stroke-miterlimit="10" stroke-dasharray="150"/><path d="M4.01605,33.2777c.97011,0,1.75653-.7864,1.75653-1.7565s-.78642-1.7566-1.75653-1.7566-1.75653.7865-1.75653,1.7566.78643,1.7565,1.75653,1.7565Z" fill="none" stroke="white" stroke-width="2" stroke-linecap="round" stroke-linejoin="round" stroke-miterlimit="10"/></g></g></g></svg>